#!OML:ASF E:\acrobat2\Project_11_07_03\Capture day 1\Session 1\Acrobat.ASF
:FULLY-SPECIFIED
:DEGREES
65
root 6.0802 17.9333 -23.4945 0.97681 77.6866 -2.84759
lowerback -5.20547 -6.30068 -4.1338
upperback 0.695406 -8.28488 3.72028
thorax 4.77697 -4.27574 5.34188
lowerneck 11.148 -23.0753 -9.81075
upperneck -3.51179 -31.4888 13.7476
head 0.926822 -16.1032 5.16349
rclavicle -1.92324e-014 3.10104e-014
rhumerus -34.4325 5.14443 -78.22
rradius 25.3267
rwrist -0.106935
rhand -5.03332 -42.5297
rfingers 7.12502
rthumb 20.7614 -71.4391
lclavicle -1.92324e-014 3.10104e-014
lhumerus -37.6865 1.64268 81.6307
lradius 30.0929
lwrist 12.3833
lhand -10.8361 -11.219
lfingers 7.12502
lthumb 15.1784 18.2043
rfemur 1.50368 15.2486 8.30524
rtibia -1.30497
rfoot -20.2955 -32.8256
rtoes -5.34608
lfemur 9.23529 -4.73864 -7.75003
ltibia -0.159066
lfoot -29.6771 0.721284
ltoes 48.6358
66
root 6.0807 17.9331 -23.4989 0.924512 77.7691 -2.91494
lowerback -5.2546 -6.2767 -3.99873
upperback 0.710686 -8.25696 3.64515
thorax 4.78549 -4.25684 5.18678
lowerneck 11.2353 -23.0522 -9.78531
upperneck -3.65034 -31.4493 13.824
head 0.876838 -16.0908 5.20461
rclavicle 4.32854e-014 -1.51076e-014
rhumerus -34.2752 4.55889 -77.9925
rradius 25.4444
rwrist -0.525972
rhand -4.24178 -42.1607
rfingers 7.12502
rthumb 21.5218 -70.985
lclavicle 4.32854e-014 -1.51076e-014
lhumerus -37.6958 1.4792 81.5659
lradius 29.9769
lwrist 12.2246
lhand -10.8196 -11.412
lfingers 7.12502
lthumb 15.1943 18.0101
rfemur 1.51214 15.1875 8.28726
rtibia -1.32855
rfoot -20.307 -32.8494
rtoes -5.51383
lfemur 9.20622 -4.89817 -7.76553
ltibia -0.181418
lfoot -29.7671 0.373712
ltoes 49.0903
67
root 6.07999 17.9323 -23.5029 1.2703 77.875 -2.58004
lowerback -5.26902 -6.25292 -3.98216
upperback 0.698634 -8.22235 3.56038
thorax 4.76087 -4.23689 5.09295
lowerneck 11.1786 -23.0616 -9.60291
upperneck -3.74527 -31.4292 13.7077
head 0.808668 -16.0783 5.17011
rclavicle 5.54609e-014 -5.80451e-014
rhumerus -34.4655 4.95087 -78.2612
rradius 25.6876
rwrist -0.787464
rhand -4.3471 -41.7327
rfingers 7.12502
rthumb 21.4206 -70.5685
lclavicle 5.54609e-014 -5.80451e-014
lhumerus -37.6897 1.69269 81.2545
lradius 29.6569
lwrist 11.1055
lhand -10.094 -12.0589
lfingers 7.12502
lthumb 15.8932 17.3089
rfemur 1.53981 15.2844 8.17626
rtibia -1.34673
rfoot -20.8219 -32.8065
rtoes -4.61238
lfemur 9.16741 -5.08354 -7.86168
ltibia -0.201359
lfoot -29.8759 0.29897
ltoes 49.2299
68
root 6.07869 17.9315 -23.5047 1.45752 77.9489 -2.40831
lowerback -5.26688 -6.16665 -4.01933
upperback 0.691444 -8.10222 3.49875
thorax 4.73272 -4.17655 5.06503
lowerneck 11.1363 -23.0987 -9.39307
upperneck -3.83103 -31.4414 13.7248
head 0.763017 -16.0867 5.1619
rclavicle -3.8763e-015 -2.38542e-015
rhumerus -34.8021 5.69713 -78.7834
rradius 26.1584
rwrist -1.13305
rhand -5.17085 -41.9764
rfingers 7.12502
rthumb 20.6293 -70.9002
lclavicle -3.8763e-015 -2.38542e-015
lhumerus -37.7118 1.30603 81.3848
lradius 29.694
lwrist 11.4636
lhand -10.1819 -11.7657
lfingers 7.12502
lthumb 15.8085 17.6089
rfemur 1.52663 15.3776 8.12307
rtibia -1.31056
rfoot -21.2106 -32.7765
rtoes -3.86447
lfemur 9.13096 -5.22095 -7.91399
ltibia -0.209067
lfoot -29.9882 0.346157
ltoes 49.1977
69
root 6.07729 17.9309 -23.5036 1.89136 77.9953 -1.98709
lowerback -5.26481 -6.05432 -4.17127
upperback 0.68722 -7.9404 3.43819
thorax 4.71888 -4.09915 5.1062
lowerneck 11.1978 -23.1245 -9.20988
upperneck -4.01421 -31.4378 13.8633
head 0.695027 -16.0953 5.20458
rclavicle -1.63997e-015 -1.43125e-014
rhumerus -34.84 5.5314 -78.8792
rradius 26.2536
rwrist -1.0819
rhand -5.52308 -42.1115
rfingers 7.12502
rthumb 20.2908 -71.0716
lclavicle -1.63997e-015 -1.43125e-014
lhumerus -37.6366 1.01758 81.4336
lradius 29.5827
lwrist 11.5532
lhand -10.1633 -11.6896
lfingers 7.12502
lthumb 15.8264 17.6836
rfemur 1.46422 15.2937 8.00207
rtibia -1.22699
rfoot -21.1808 -32.7518
rtoes -3.55662
lfemur 9.07489 -5.1099 -7.94792
ltibia -0.183748
lfoot -29.8711 0.352406
ltoes 49.0749
70
root 6.0755 17.9309 -23.503 2.72482 78.065 -1.11585
lowerback -5.18645 -6.01552 -4.38518
upperback 0.674003 -7.87513 3.36562
thorax 4.67152 -4.07066 5.16526
lowerneck 11.2551 -23.0299 -9.24312
upperneck -4.11438 -31.3095 14.0191
head 0.672624 -16.0394 5.26747
rclavicle 6.12257e-014 1.19271e-014
rhumerus -34.7878 4.94232 -78.7486
rradius 26.2879
rwrist -0.586681
rhand -5.19762 -42.4028
rfingers 7.12502
rthumb 20.6035 -71.3293
lclavicle 6.12257e-014 1.19271e-014
lhumerus -37.5917 0.91595 81.4146
lradius 29.4057
lwrist 11.5654
lhand -10.2644 -11.6758
lfingers 7.12502
lthumb 15.729 17.705
rfemur 1.45061 15.0486 7.75125
rtibia -1.16895
rfoot -20.8907 -32.7342
rtoes -4.04564
lfemur 9.02089 -4.79854 -8.03281
ltibia -0.103006
lfoot -29.4945 0.364611
ltoes 48.8502
71
root 6.0716 17.9315 -23.5043 3.09445 78.1855 -0.710799
lowerback -5.03878 -6.02953 -4.5047
upperback 0.643189 -7.89065 3.34738
thorax 4.57204 -4.07918 5.22731
lowerneck 11.4015 -22.7758 -9.53263
upperneck -4.16611 -31.0095 14.3339
head 0.694672 -15.9028 5.40424
rclavicle -2.42517e-014 -2.38542e-014
rhumerus -34.8247 4.86856 -78.7604
rradius 26.468
rwrist -0.519797
rhand -5.08505 -42.461
rfingers 7.12502
rthumb 20.7117 -71.3757
lclavicle -2.42517e-014 -2.38542e-014
lhumerus -37.6047 1.17488 81.2814
lradius 29.2332
lwrist 11.1381
lhand -10.1756 -11.8337
lfingers 7.12502
lthumb 15.8145 17.5403
rfemur 1.45453 14.7684 7.61366
rtibia -1.11575
rfoot -20.6428 -32.6904
rtoes -4.74247
lfemur 8.9091 -4.53115 -8.0201
ltibia 0.0610739
lfoot -29.1432 0.465829
ltoes 48.0499
72
root 6.06564 17.9323 -23.5052 3.35334 78.2966 -0.470656
lowerback -4.91494 -6.02412 -4.63112
upperback 0.609846 -7.88055 3.36164
thorax 4.48578 -4.07569 5.32793
lowerneck 11.2402 -23.0912 -9.1565
upperneck -4.52927 -31.356 13.8319
head 0.510954 -16.0622 5.24763
rclavicle -3.76697e-014 1.51076e-014
rhumerus -34.8626 5.23057 -78.9171
rradius 26.683
rwrist -0.950358
rhand -5.30402 -42.2746
rfingers 7.12502
rthumb 20.5013 -71.2122
lclavicle -3.76697e-014 1.51076e-014
lhumerus -37.6182 1.49571 81.1487
lradius 29.0992
lwrist 10.5894
lhand -9.85214 -12.2853
lfingers 7.12502
lthumb 16.126 17.0638
rfemur 1.38909 14.6574 7.53429
rtibia -1.03071
rfoot -20.675 -32.6626
rtoes -4.985
lfemur 8.70234 -4.35858 -7.99198
ltibia 0.277554
lfoot -28.8989 0.302233
ltoes 47.5797
73
root 6.05894 17.9336 -23.5106 3.58827 78.3948 -0.265553
lowerback -4.82616 -5.96207 -4.66021
upperback 0.607359 -7.79753 3.32136
thorax 4.42011 -4.03331 5.32151
lowerneck 11.1433 -23.0543 -9.11815
upperneck -4.54469 -31.2951 13.9091
head 0.520803 -16.0324 5.25628
rclavicle 6.01324e-015 -3.97569e-015
rhumerus -34.873 5.42487 -79.0898
rradius 26.8914
rwrist -1.24216
rhand -5.47832 -42.1239
rfingers 7.12502
rthumb 20.3338 -71.0794
lclavicle 6.01324e-015 -3.97569e-015
lhumerus -37.6132 1.29302 81.1942
lradius 29.0923
lwrist 10.6757
lhand -9.71763 -12.4741
lfingers 7.12502
lthumb 16.2556 16.8645
rfemur 1.20844 14.2652 7.39652
rtibia -0.819141
rfoot -20.3717 -32.4915
rtoes -5.91779
lfemur 8.48102 -4.2461 -7.99928
ltibia 0.484803
lfoot -28.6683 -0.200768
ltoes 48.4366
74
root 6.05253 17.9343 -23.5257 2.05273 78.5887 -1.79564
lowerback -4.65229 -5.93177 -4.16862
upperback 0.634377 -7.78989 3.3334
thorax 4.28374 -4.01492 5.08136
lowerneck 11.0624 -22.8763 -9.26986
upperneck -4.44013 -31.0788 14.1373
head 0.599145 -15.9271 5.3158
rclavicle -5.29761e-014 1.59028e-014
rhumerus -34.8112 5.61773 -79.258
rradius 26.9975
rwrist -1.3296
rhand -5.51738 -42.1059
rfingers 7.12502
rthumb 20.2962 -71.0654
lclavicle -5.29761e-014 1.59028e-014
lhumerus -37.6497 1.01351 81.2371
lradius 29.1831
lwrist 11.0597
lhand -9.72242 -12.3695
lfingers 7.12502
lthumb 16.2509 16.9695
rfemur 1.06971 13.4378 7.62157
rtibia -0.505759
rfoot -19.7809 -32.0688
rtoes -6.80687
lfemur 8.31616 -4.16482 -7.62744
ltibia 0.697965
lfoot -28.4533 -0.651079
ltoes 49.0309
75
root 6.04706 17.9335 -23.5404 -1.19976 78.8084 -5.0254
lowerback -4.42432 -5.9626 -3.28499
upperback 0.632651 -7.88352 3.38306
thorax 4.05053 -4.03579 4.66226
lowerneck 11.2174 -22.6823 -9.46414
upperneck -4.47912 -30.847 14.4272
head 0.613549 -15.8249 5.43579
rclavicle -3.21534e-014 0
rhumerus -34.8858 5.86832 -79.4899
rradius 27.0892
rwrist -1.33901
rhand -5.2245 -42.3444
rfingers 7.12502
rthumb 20.5777 -71.2737
lclavicle -3.21534e-014 0
lhumerus -37.8799 0.910714 81.0451
lradius 29.3142
lwrist 11.2387
lhand -9.60591 -12.4277
lfingers 7.12502
lthumb 16.3631 16.9021
rfemur 1.08786 12.7994 8.30661
rtibia -0.280968
rfoot -19.478 -31.7296
rtoes -6.89749
lfemur 8.15002 -3.75577 -6.76957
ltibia 0.99978
lfoot -27.9406 -1.10088
ltoes 48.6731
76
root 6.04035 17.9336 -23.5433 -3.0287 78.9477 -6.88148
lowerback -4.2068 -5.99303 -3.17799
upperback 0.502028 -7.9378 3.64176
thorax 3.8218 -4.05795 4.89702
lowerneck 11.8183 -22.5952 -9.91082
upperneck -4.98763 -30.7848 14.5993
head 0.456845 -15.8198 5.62416
rclavicle -3.28989e-014 -2.38542e-015
rhumerus -35.2494 6.68662 -79.5034
rradius 27.4347
rwrist -1.8152
rhand -5.08216 -42.366
rfingers 7.12502
rthumb 20.7145 -71.2805
lclavicle -3.28989e-014 -2.38542e-015
lhumerus -38.211 1.31023 81.0794
lradius 29.3269
lwrist 10.8202
lhand -9.49143 -12.6185
lfingers 7.12502
lthumb 16.4733 16.7021
rfemur 1.03529 12.6014 8.71549
rtibia -0.114648
rfoot -19.5013 -31.6564
rtoes -6.86289
lfemur 7.84236 -3.12887 -6.10719
ltibia 1.45818
lfoot -27.2441 -1.54616
ltoes 47.6626
77
root 6.03182 17.9347 -23.5413 -3.24904 79.0686 -7.17383
lowerback -4.18501 -5.75565 -3.0503
upperback 0.726594 -7.62717 3.50842
thorax 3.97174 -3.90497 4.71003
lowerneck 10.9407 -22.7597 -9.35912
upperneck -4.92199 -30.8897 14.6625
head 0.548396 -15.8536 5.47685
rclavicle -1.01877e-014 3.73715e-014
rhumerus -35.0362 6.24149 -79.5697
rradius 27.7095
rwrist -2.12529
rhand -5.14427 -42.1994
rfingers 7.12502
rthumb 20.6548 -71.1203
lclavicle -1.01877e-014 3.73715e-014
lhumerus -37.5707 0.967578 81.014
lradius 29.1638
lwrist 10.461
lhand -9.55761 -12.6984
lfingers 7.12502
lthumb 16.4096 16.6275
rfemur 0.873123 12.6847 8.77764
rtibia 0.0721776
rfoot -19.7963 -31.7563
rtoes -6.5678
lfemur 7.41743 -2.70644 -5.83162
ltibia 2.03711
lfoot -26.6876 -2.28169
ltoes 47.1901
78
root 6.02194 17.9377 -23.5435 -3.45064 79.2639 -7.45239
lowerback -4.08402 -5.64692 -2.84188
upperback 0.791411 -7.48931 3.33487
thorax 3.91543 -3.82931 4.43651
lowerneck 10.5433 -22.8224 -9.01568
upperneck -4.75447 -30.9233 14.6601
head 0.61146 -15.8595 5.38818
rclavicle -3.21037e-014 3.4191e-014
rhumerus -34.9023 5.21621 -79.5451
rradius 27.7037
rwrist -1.66099
rhand -5.07074 -42.0605
rfingers 7.12502
rthumb 20.7254 -70.9738
lclavicle -3.21037e-014 3.4191e-014
lhumerus -37.4009 0.498448 80.8723
lradius 29.1982
lwrist 10.6253
lhand -9.63233 -12.7389
lfingers 7.12502
lthumb 16.3377 16.5929
rfemur 0.748269 12.9493 8.84928
rtibia 0.215145
rfoot -20.364 -31.9913
rtoes -5.53199
lfemur 6.93224 -2.31404 -5.61677
ltibia 2.65819
lfoot -26.0546 -3.6441
ltoes 47.7851
79
root 6.01054 17.9425 -23.5428 -2.19532 79.5132 -6.29792
lowerback -3.98344 -5.6197 -3.2033
upperback 0.774709 -7.43624 3.28863
thorax 3.8767 -3.81079 4.60339
lowerneck 10.3937 -22.8174 -8.89104
upperneck -4.76805 -30.8939 14.6061
head 0.599294 -15.8401 5.35286
rclavicle -7.30534e-015 -5.96354e-015
rhumerus -34.8091 4.16631 -79.2185
rradius 27.6421
rwrist -0.85673
rhand -4.88956 -41.8904
rfingers 7.12502
rthumb 20.8995 -70.7846
lclavicle -7.30534e-015 -5.96354e-015
lhumerus -37.4237 0.063376 80.9568
lradius 29.3341
lwrist 10.9215
lhand -9.46899 -12.9464
lfingers 7.12502
lthumb 16.4949 16.3725
rfemur 0.490975 12.8706 8.496
rtibia 0.430463
rfoot -20.6972 -32.0155
rtoes -4.79718
lfemur 6.36712 -1.8513 -5.70572
ltibia 3.26127
lfoot -25.4401 -4.83406
ltoes 47.4965
